<?xml version="1.0" standalone="no"?><!DOCTYPE svg PUBLIC "-//W3C//DTD SVG 1.1//EN" "http://www.w3.org/Graphics/SVG/1.1/DTD/svg11.dtd"><svg t="1674287863214" class="icon" viewBox="0 0 1024 1024" version="1.1" xmlns="http://www.w3.org/2000/svg" p-id="8276" data-spm-anchor-id="a313x.7781069.0.i17" xmlns:xlink="http://www.w3.org/1999/xlink" width="200" height="200"><path d="M417.28106 1024a70.659674 70.659674 0 0 1-70.659674-70.659674v-256.03533h-70.53602a14.131935 14.131935 0 0 1-14.131935-14.131935 14.131935 14.131935 0 0 1 0.264974-2.720397 14.131935 14.131935 0 0 1 4.062931-8.83246l362.749103-365.169197a19.979023 19.979023 0 0 1 18.830803-5.900082 21.197902 21.197902 0 0 1 10.88159 6.218051l361.671543 364.109302a14.290919 14.290919 0 0 1 3.109026 15.368479 14.131935 14.131935 0 0 1-13.849297 11.058239h-70.447695V953.340326a70.659674 70.659674 0 0 1-70.659674 70.659674z" fill="#ffffff" opacity=".2" p-id="8277" data-spm-anchor-id="a313x.7781069.0.i16" class="selected"></path><path d="M141.319702 494.070108h-123.65443a17.664919 17.664919 0 0 1-17.664919-17.664919 16.887662 16.887662 0 0 1 0.353299-3.532984 17.664919 17.664919 0 0 1 5.087496-10.7756l454.129727-454.129727a26.020425 26.020425 0 0 1 18.336185-7.966878 21.374551 21.374551 0 0 1 5.299476 0.653602 26.762352 26.762352 0 0 1 13.531328 7.719569l452.822522 452.822523a17.664919 17.664919 0 0 1 3.886283 19.148772 17.664919 17.664919 0 0 1-17.223296 13.707977H812.586608v-17.664919h17.664918v-17.664918h66.861717l-419.153188-419.170853L58.789202 458.722606H123.654783v17.664918h17.664919v17.664919z" fill="#ffffff" p-id="8278" data-spm-anchor-id="a313x.7781069.0.i0" class=""></path><path d="M777.256771 900.34557h-35.329838v-35.329837h35.329838a35.329837 35.329837 0 0 0 35.329837-35.329837v-353.298372h17.664918v-17.664918h17.664919v370.96329a70.659674 70.659674 0 0 1-70.659674 70.659674z m-388.628209 0h-211.979023a70.659674 70.659674 0 0 1-70.659674-70.659674v-35.329837h35.329837v35.329837a35.329837 35.329837 0 0 0 35.329837 35.329837h211.979023v35.329837z m-247.30886-247.30886h-35.329837v-194.314104h17.664918v17.664918h17.664919v176.649186z" fill="#ffffff" p-id="8279" data-spm-anchor-id="a313x.7781069.0.i1" class=""></path><path d="M123.654783 476.387524m-17.664918 0a17.664919 17.664919 0 1 0 35.329837 0 17.664919 17.664919 0 1 0-35.329837 0Z" fill="#ffffff" p-id="8280" data-spm-anchor-id="a313x.7781069.0.i4" class=""></path><path d="M830.251526 476.387524m-17.664918 0a17.664919 17.664919 0 1 0 35.329837 0 17.664919 17.664919 0 1 0-35.329837 0Z" fill="#ffffff" p-id="8281" data-spm-anchor-id="a313x.7781069.0.i9" class=""></path><path d="M423.958399 830.251173m17.664919 0l35.329837 0q17.664919 0 17.664918 17.664919l0 35.329837q0 17.664919-17.664918 17.664918l-35.329837 0q-17.664919 0-17.664919-17.664918l0-35.329837q0-17.664919 17.664919-17.664919Z" fill="#ffffff" p-id="8282" data-spm-anchor-id="a313x.7781069.0.i13" class=""></path><path d="M423.958399 724.261662m17.664919 0l35.329837 0q17.664919 0 17.664918 17.664918l0 35.329837q0 17.664919-17.664918 17.664919l-35.329837 0q-17.664919 0-17.664919-17.664919l0-35.329837q0-17.664919 17.664919-17.664918Z" fill="#ffffff" p-id="8283" data-spm-anchor-id="a313x.7781069.0.i10" class=""></path><path d="M317.968888 724.261662m17.664918 0l35.329837 0q17.664919 0 17.664919 17.664918l0 35.329837q0 17.664919-17.664919 17.664919l-35.329837 0q-17.664919 0-17.664918-17.664919l0-35.329837q0-17.664919 17.664918-17.664918Z" fill="#ffffff" p-id="8284" data-spm-anchor-id="a313x.7781069.0.i19" class=""></path><path d="M423.958399 618.27215m17.664919 0l35.329837 0q17.664919 0 17.664918 17.664919l0 35.329837q0 17.664919-17.664918 17.664918l-35.329837 0q-17.664919 0-17.664919-17.664918l0-35.329837q0-17.664919 17.664919-17.664919Z" fill="#ffffff" p-id="8285" data-spm-anchor-id="a313x.7781069.0.i18" class=""></path><path d="M529.947911 830.251173m17.664918 0l35.329837 0q17.664919 0 17.664919 17.664919l0 35.329837q0 17.664919-17.664919 17.664918l-35.329837 0q-17.664919 0-17.664918-17.664918l0-35.329837q0-17.664919 17.664918-17.664919Z" fill="#ffffff" p-id="8286" data-spm-anchor-id="a313x.7781069.0.i14" class=""></path><path d="M529.947911 724.261662m17.664918 0l35.329837 0q17.664919 0 17.664919 17.664918l0 35.329837q0 17.664919-17.664919 17.664919l-35.329837 0q-17.664919 0-17.664918-17.664919l0-35.329837q0-17.664919 17.664918-17.664918Z" fill="#ffffff" p-id="8287" data-spm-anchor-id="a313x.7781069.0.i11" class=""></path><path d="M105.989865 688.931824m17.664918 0l0 0q17.664919 0 17.664919 17.664919l0 35.329837q0 17.664919-17.664919 17.664919l0 0q-17.664919 0-17.664918-17.664919l0-35.329837q0-17.664919 17.664918-17.664919Z" fill="#ffffff" p-id="8288" data-spm-anchor-id="a313x.7781069.0.i2" class=""></path><path d="M529.947911 618.27215m17.664918 0l35.329837 0q17.664919 0 17.664919 17.664919l0 35.329837q0 17.664919-17.664919 17.664918l-35.329837 0q-17.664919 0-17.664918-17.664918l0-35.329837q0-17.664919 17.664918-17.664919Z" fill="#ffffff" p-id="8289" data-spm-anchor-id="a313x.7781069.0.i20" class=""></path><path d="M635.937422 724.261662m17.664919 0l35.329837 0q17.664919 0 17.664918 17.664918l0 35.329837q0 17.664919-17.664918 17.664919l-35.329837 0q-17.664919 0-17.664919-17.664919l0-35.329837q0-17.664919 17.664919-17.664918Z" fill="#ffffff" p-id="8290" data-spm-anchor-id="a313x.7781069.0.i12" class=""></path><path d="M635.937422 830.251173m17.664919 0l35.329837 0q17.664919 0 17.664918 17.664919l0 35.329837q0 17.664919-17.664918 17.664918l-35.329837 0q-17.664919 0-17.664919-17.664918l0-35.329837q0-17.664919 17.664919-17.664919Z" fill="#ffffff" p-id="8291" data-spm-anchor-id="a313x.7781069.0.i15" class=""></path><path d="M388.628562 883.245929m-17.664919 0a17.664919 17.664919 0 1 0 35.329838 0 17.664919 17.664919 0 1 0-35.329838 0Z" fill="#ffffff" p-id="8292" data-spm-anchor-id="a313x.7781069.0.i7" class=""></path><path d="M741.926933 883.245929m-17.664918 0a17.664919 17.664919 0 1 0 35.329837 0 17.664919 17.664919 0 1 0-35.329837 0Z" fill="#ffffff" p-id="8293" data-spm-anchor-id="a313x.7781069.0.i8" class=""></path><path d="M123.654783 653.601987m-17.664918 0a17.664919 17.664919 0 1 0 35.329837 0 17.664919 17.664919 0 1 0-35.329837 0Z" fill="#ffffff" p-id="8294" data-spm-anchor-id="a313x.7781069.0.i3" class=""></path><path d="M123.654783 794.921336m-17.664918 0a17.664919 17.664919 0 1 0 35.329837 0 17.664919 17.664919 0 1 0-35.329837 0Z" fill="#ffffff" p-id="8295" data-spm-anchor-id="a313x.7781069.0.i5" class=""></path></svg>